<svg width="421" height="101" viewBox="0 0 421 101" fill="none" xmlns="http://www.w3.org/2000/svg">
<path d="M21.4062 14.7686H23.6814V66.477H21.4062V14.7686ZM48.977 35.4519H51.1833V42.3464C52.1945 40.0483 53.9181 38.2097 56.3541 36.8308C58.7903 35.4059 61.4791 34.6936 64.4206 34.6936C68.2357 34.6936 71.2461 35.9116 73.4524 38.3476C75.7046 40.7378 76.8307 44.0929 76.8307 48.4135V66.477H74.6244V48.4135C74.6244 44.6905 73.7052 41.7949 71.8666 39.7265C70.0741 37.6582 67.5462 36.624 64.2827 36.624C61.8928 36.624 59.6865 37.1756 57.6641 38.2787C55.6878 39.3358 54.102 40.8067 52.9069 42.6911C51.7579 44.5756 51.1833 46.7128 51.1833 49.103V66.477H48.977V35.4519ZM100.636 65.3739C103.025 65.3739 105.301 64.7534 107.461 63.5124C109.621 62.2714 111.414 60.5707 112.839 58.4105V61.9267C111.138 63.8111 109.277 65.19 107.254 66.0634C105.232 66.8907 102.934 67.3044 100.36 67.3044C97.5099 67.3044 94.8211 66.546 92.2932 65.0292C89.8112 63.5124 87.8118 61.4901 86.295 58.9621C84.8241 56.434 84.0888 53.7452 84.0888 50.8955C84.0888 47.816 84.8241 45.0582 86.295 42.6222C87.7658 40.1402 89.7652 38.2097 92.2932 36.8308C94.8671 35.4519 97.7167 34.7625 100.842 34.7625C105.622 34.7625 109.69 36.6469 113.046 40.416L91.3969 61.7888C92.9137 63.0298 94.3845 63.949 95.8094 64.5466C97.2341 65.0981 98.8429 65.3739 100.636 65.3739ZM86.295 50.6887C86.295 54.5036 87.559 57.7671 90.087 60.4788L110.288 40.416C108.771 39.0831 107.3 38.1408 105.875 37.5892C104.45 36.9917 102.75 36.6929 100.773 36.6929C97.9696 36.6929 95.4647 37.3135 93.2584 38.5545C91.0981 39.7494 89.3975 41.4041 88.1565 43.5185C86.9155 45.6328 86.295 48.0228 86.295 50.6887ZM135.04 65.3739C137.431 65.3739 139.706 64.7534 141.866 63.5124C144.026 62.2714 145.819 60.5707 147.244 58.4105V61.9267C145.543 63.8111 143.681 65.19 141.659 66.0634C139.637 66.8907 137.339 67.3044 134.765 67.3044C131.915 67.3044 129.226 66.546 126.698 65.0292C124.216 63.5124 122.217 61.4901 120.7 58.9621C119.229 56.434 118.494 53.7452 118.494 50.8955C118.494 47.816 119.229 45.0582 120.7 42.6222C122.171 40.1402 124.17 38.2097 126.698 36.8308C129.272 35.4519 132.122 34.7625 135.247 34.7625C140.027 34.7625 144.095 36.6469 147.45 40.416L125.802 61.7888C127.319 63.0298 128.789 63.949 130.214 64.5466C131.639 65.0981 133.248 65.3739 135.04 65.3739ZM120.7 50.6887C120.7 54.5036 121.964 57.7671 124.492 60.4788L144.693 40.416C143.176 39.0831 141.705 38.1408 140.28 37.5892C138.855 36.9917 137.155 36.6929 135.178 36.6929C132.375 36.6929 129.87 37.3135 127.663 38.5545C125.503 39.7494 123.802 41.4041 122.561 43.5185C121.32 45.6328 120.7 48.0228 120.7 50.6887ZM168.963 67.2354C165.975 67.2354 163.217 66.4999 160.69 65.0292C158.208 63.5584 156.231 61.582 154.76 59.0999C153.289 56.6179 152.554 53.9062 152.554 50.9645C152.554 48.0228 153.289 45.311 154.76 42.829C156.231 40.347 158.208 38.3705 160.69 36.8998C163.217 35.429 165.975 34.6936 168.963 34.6936C171.859 34.6936 174.616 35.4749 177.236 37.0377C179.856 38.5545 181.787 40.5538 183.028 43.0359V14.7686H185.234V66.477H183.028V58.9621C181.649 61.4441 179.649 63.4435 177.029 64.9602C174.455 66.477 171.767 67.2354 168.963 67.2354ZM168.894 65.305C171.422 65.305 173.766 64.6615 175.926 63.3745C178.133 62.0416 179.879 60.2949 181.166 58.1347C182.499 55.9285 183.165 53.5615 183.165 51.0334C183.165 48.5054 182.499 46.1384 181.166 43.9321C179.879 41.7259 178.133 39.9563 175.926 38.6234C173.766 37.2905 171.422 36.624 168.894 36.624C166.366 36.624 164.022 37.2905 161.862 38.6234C159.701 39.9104 157.978 41.657 156.691 43.8632C155.404 46.0694 154.76 48.4365 154.76 50.9645C154.76 53.5384 155.381 55.9285 156.622 58.1347C157.909 60.2949 159.632 62.0416 161.793 63.3745C163.999 64.6615 166.366 65.305 168.894 65.305ZM220.186 66.8907C216.783 66.8907 213.956 65.8565 211.705 63.7882C209.499 61.7198 208.396 58.8702 208.396 55.239V22.973H210.602V35.4519H220.117V37.3824H210.602V55.239C210.602 58.2726 211.499 60.6628 213.291 62.4093C215.129 64.11 217.428 64.9602 220.186 64.9602V66.8907ZM225.984 14.7686H228.19V41.8638C229.155 39.7955 230.788 38.0948 233.085 36.7619C235.429 35.383 237.798 34.6936 240.186 34.6936C244.554 34.6936 247.908 35.8885 250.252 38.2787C252.643 40.6688 253.838 44.0471 253.838 48.4135V66.477H251.631V48.4135C251.631 44.6445 250.621 41.7488 248.598 39.7265C246.622 37.6582 243.818 36.624 240.186 36.624C237.98 36.624 235.958 37.1526 234.119 38.2097C232.282 39.221 230.834 40.6457 229.776 42.4843C228.719 44.2769 228.19 46.2533 228.19 48.4135V66.477H225.984V14.7686ZM265.232 28.3506C264.589 28.3506 264.015 28.1208 263.509 27.6612C263.05 27.2016 262.819 26.627 262.819 25.9376C262.819 25.2941 263.05 24.7425 263.509 24.2829C264.015 23.8233 264.589 23.5935 265.232 23.5935C265.877 23.5935 266.429 23.8233 266.887 24.2829C267.394 24.7425 267.645 25.2941 267.645 25.9376C267.645 26.627 267.394 27.2016 266.887 27.6612C266.429 28.1208 265.877 28.3506 265.232 28.3506ZM264.129 35.4519H266.335V66.477H264.129V35.4519ZM284.13 67.2354C281.924 67.2354 279.971 66.8678 278.27 66.1323C276.57 65.351 275.352 64.3627 274.616 63.1677V59.5136C275.49 61.4901 276.684 62.9608 278.201 63.9261C279.718 64.8453 281.648 65.305 283.992 65.305C286.245 65.305 288.06 64.6155 289.439 63.2366C290.818 61.8117 291.507 59.9962 291.507 57.79C291.507 55.9056 291.118 54.4577 290.335 53.4465C289.554 52.3894 288.291 51.3321 286.543 50.275L283.923 48.7583C282.039 47.6091 280.614 46.7128 279.649 46.0694C278.73 45.38 277.994 44.6216 277.442 43.7942C276.891 42.9209 276.615 41.9098 276.615 40.7607C276.615 38.9221 277.26 37.4513 278.546 36.3482C279.833 35.2451 281.51 34.6936 283.578 34.6936C286.107 34.6936 288.222 35.268 289.921 36.4172V39.4507C288.498 37.5663 286.452 36.624 283.785 36.624C282.315 36.624 281.121 36.9917 280.2 37.7271C279.282 38.4626 278.821 39.4047 278.821 40.5538C278.821 41.5651 279.097 42.4614 279.649 43.2427C280.2 43.9782 280.959 44.6676 281.924 45.311C282.936 45.9544 284.59 46.9197 286.888 48.2067C289.232 49.5396 290.956 50.9185 292.059 52.3434C293.162 53.7223 293.713 55.5378 293.713 57.79C293.713 60.6397 292.772 62.9379 290.887 64.6845C289.049 66.3852 286.796 67.2354 284.13 67.2354Z" fill="white"/>
<path d="M21.4062 14.7686H23.6814V66.477H21.4062V14.7686ZM48.977 35.4519H51.1833V42.3464C52.1945 40.0483 53.9181 38.2097 56.3541 36.8308C58.7903 35.4059 61.4791 34.6936 64.4206 34.6936C68.2357 34.6936 71.2461 35.9116 73.4524 38.3476C75.7046 40.7378 76.8307 44.0929 76.8307 48.4135V66.477H74.6244V48.4135C74.6244 44.6905 73.7052 41.7949 71.8666 39.7265C70.0741 37.6582 67.5462 36.624 64.2827 36.624C61.8928 36.624 59.6865 37.1756 57.6641 38.2787C55.6878 39.3358 54.102 40.8067 52.9069 42.6911C51.7579 44.5756 51.1833 46.7128 51.1833 49.103V66.477H48.977V35.4519ZM100.636 65.3739C103.025 65.3739 105.301 64.7534 107.461 63.5124C109.621 62.2714 111.414 60.5707 112.839 58.4105V61.9267C111.138 63.8111 109.277 65.19 107.254 66.0634C105.232 66.8907 102.934 67.3044 100.36 67.3044C97.5099 67.3044 94.8211 66.546 92.2932 65.0292C89.8112 63.5124 87.8118 61.4901 86.295 58.9621C84.8241 56.434 84.0888 53.7452 84.0888 50.8955C84.0888 47.816 84.8241 45.0582 86.295 42.6222C87.7658 40.1402 89.7652 38.2097 92.2932 36.8308C94.8671 35.4519 97.7167 34.7625 100.842 34.7625C105.622 34.7625 109.69 36.6469 113.046 40.416L91.3969 61.7888C92.9137 63.0298 94.3845 63.949 95.8094 64.5466C97.2341 65.0981 98.8429 65.3739 100.636 65.3739ZM86.295 50.6887C86.295 54.5036 87.559 57.7671 90.087 60.4788L110.288 40.416C108.771 39.0831 107.3 38.1408 105.875 37.5892C104.45 36.9917 102.75 36.6929 100.773 36.6929C97.9696 36.6929 95.4647 37.3135 93.2584 38.5545C91.0981 39.7494 89.3975 41.4041 88.1565 43.5185C86.9155 45.6328 86.295 48.0228 86.295 50.6887ZM135.04 65.3739C137.431 65.3739 139.706 64.7534 141.866 63.5124C144.026 62.2714 145.819 60.5707 147.244 58.4105V61.9267C145.543 63.8111 143.681 65.19 141.659 66.0634C139.637 66.8907 137.339 67.3044 134.765 67.3044C131.915 67.3044 129.226 66.546 126.698 65.0292C124.216 63.5124 122.217 61.4901 120.7 58.9621C119.229 56.434 118.494 53.7452 118.494 50.8955C118.494 47.816 119.229 45.0582 120.7 42.6222C122.171 40.1402 124.17 38.2097 126.698 36.8308C129.272 35.4519 132.122 34.7625 135.247 34.7625C140.027 34.7625 144.095 36.6469 147.45 40.416L125.802 61.7888C127.319 63.0298 128.789 63.949 130.214 64.5466C131.639 65.0981 133.248 65.3739 135.04 65.3739ZM120.7 50.6887C120.7 54.5036 121.964 57.7671 124.492 60.4788L144.693 40.416C143.176 39.0831 141.705 38.1408 140.28 37.5892C138.855 36.9917 137.155 36.6929 135.178 36.6929C132.375 36.6929 129.87 37.3135 127.663 38.5545C125.503 39.7494 123.802 41.4041 122.561 43.5185C121.32 45.6328 120.7 48.0228 120.7 50.6887ZM168.963 67.2354C165.975 67.2354 163.217 66.4999 160.69 65.0292C158.208 63.5584 156.231 61.582 154.76 59.0999C153.289 56.6179 152.554 53.9062 152.554 50.9645C152.554 48.0228 153.289 45.311 154.76 42.829C156.231 40.347 158.208 38.3705 160.69 36.8998C163.217 35.429 165.975 34.6936 168.963 34.6936C171.859 34.6936 174.616 35.4749 177.236 37.0377C179.856 38.5545 181.787 40.5538 183.028 43.0359V14.7686H185.234V66.477H183.028V58.9621C181.649 61.4441 179.649 63.4435 177.029 64.9602C174.455 66.477 171.767 67.2354 168.963 67.2354ZM168.894 65.305C171.422 65.305 173.766 64.6615 175.926 63.3745C178.133 62.0416 179.879 60.2949 181.166 58.1347C182.499 55.9285 183.165 53.5615 183.165 51.0334C183.165 48.5054 182.499 46.1384 181.166 43.9321C179.879 41.7259 178.133 39.9563 175.926 38.6234C173.766 37.2905 171.422 36.624 168.894 36.624C166.366 36.624 164.022 37.2905 161.862 38.6234C159.701 39.9104 157.978 41.657 156.691 43.8632C155.404 46.0694 154.76 48.4365 154.76 50.9645C154.76 53.5384 155.381 55.9285 156.622 58.1347C157.909 60.2949 159.632 62.0416 161.793 63.3745C163.999 64.6615 166.366 65.305 168.894 65.305ZM220.186 66.8907C216.783 66.8907 213.956 65.8565 211.705 63.7882C209.499 61.7198 208.396 58.8702 208.396 55.239V22.973H210.602V35.4519H220.117V37.3824H210.602V55.239C210.602 58.2726 211.499 60.6628 213.291 62.4093C215.129 64.11 217.428 64.9602 220.186 64.9602V66.8907ZM225.984 14.7686H228.19V41.8638C229.155 39.7955 230.788 38.0948 233.085 36.7619C235.429 35.383 237.798 34.6936 240.186 34.6936C244.554 34.6936 247.908 35.8885 250.252 38.2787C252.643 40.6688 253.838 44.0471 253.838 48.4135V66.477H251.631V48.4135C251.631 44.6445 250.621 41.7488 248.598 39.7265C246.622 37.6582 243.818 36.624 240.186 36.624C237.98 36.624 235.958 37.1526 234.119 38.2097C232.282 39.221 230.834 40.6457 229.776 42.4843C228.719 44.2769 228.19 46.2533 228.19 48.4135V66.477H225.984V14.7686ZM265.232 28.3506C264.589 28.3506 264.015 28.1208 263.509 27.6612C263.05 27.2016 262.819 26.627 262.819 25.9376C262.819 25.2941 263.05 24.7425 263.509 24.2829C264.015 23.8233 264.589 23.5935 265.232 23.5935C265.877 23.5935 266.429 23.8233 266.887 24.2829C267.394 24.7425 267.645 25.2941 267.645 25.9376C267.645 26.627 267.394 27.2016 266.887 27.6612C266.429 28.1208 265.877 28.3506 265.232 28.3506ZM264.129 35.4519H266.335V66.477H264.129V35.4519ZM284.13 67.2354C281.924 67.2354 279.971 66.8678 278.27 66.1323C276.57 65.351 275.352 64.3627 274.616 63.1677V59.5136C275.49 61.4901 276.684 62.9608 278.201 63.9261C279.718 64.8453 281.648 65.305 283.992 65.305C286.245 65.305 288.06 64.6155 289.439 63.2366C290.818 61.8117 291.507 59.9962 291.507 57.79C291.507 55.9056 291.118 54.4577 290.335 53.4465C289.554 52.3894 288.291 51.3321 286.543 50.275L283.923 48.7583C282.039 47.6091 280.614 46.7128 279.649 46.0694C278.73 45.38 277.994 44.6216 277.442 43.7942C276.891 42.9209 276.615 41.9098 276.615 40.7607C276.615 38.9221 277.26 37.4513 278.546 36.3482C279.833 35.2451 281.51 34.6936 283.578 34.6936C286.107 34.6936 288.222 35.268 289.921 36.4172V39.4507C288.498 37.5663 286.452 36.624 283.785 36.624C282.315 36.624 281.121 36.9917 280.2 37.7271C279.282 38.4626 278.821 39.4047 278.821 40.5538C278.821 41.5651 279.097 42.4614 279.649 43.2427C280.2 43.9782 280.959 44.6676 281.924 45.311C282.936 45.9544 284.59 46.9197 286.888 48.2067C289.232 49.5396 290.956 50.9185 292.059 52.3434C293.162 53.7223 293.713 55.5378 293.713 57.79C293.713 60.6397 292.772 62.9379 290.887 64.6845C289.049 66.3852 286.796 67.2354 284.13 67.2354Z" fill="url(#paint0_linear_1066_6760)"/>
<path d="M1.23047 80.8472H399.059" stroke="#D0DDB1" stroke-width="1.1" stroke-miterlimit="10" stroke-linecap="round"/>
<path d="M338.791 65.3826C344.078 61.5498 348.968 61.9463 355.84 61.5498C354.386 68.2905 353.197 80.8465 333.504 80.7143C333.504 76.3528 333.637 69.3478 338.791 65.3826Z" fill="url(#paint1_linear_1066_6760)"/>
<path style="mix-blend-mode:color-dodge" opacity="0.28" d="M338.791 65.3826C344.078 61.5498 348.968 61.9463 355.84 61.5498C354.386 68.2905 353.197 80.8465 333.504 80.7143C333.504 76.3528 333.637 69.3478 338.791 65.3826Z" fill="url(#paint2_linear_1066_6760)"/>
<path d="M386.901 75.824C392.188 71.1981 391.66 67.894 392.981 61.5498C387.166 62.3428 382.539 61.5498 378.178 65.9113C374.081 69.8765 373.817 76.0883 373.948 80.8465C380.161 80.0535 383.2 78.864 386.901 75.824Z" fill="url(#paint3_linear_1066_6760)"/>
<path style="mix-blend-mode:color-dodge" opacity="0.28" d="M386.901 75.824C392.188 71.1981 391.66 67.894 392.981 61.5498C387.166 62.3428 382.539 61.5498 378.178 65.9113C374.081 69.8765 373.817 76.0883 373.948 80.8465C380.161 80.0535 383.2 78.864 386.901 75.824Z" fill="url(#paint4_linear_1066_6760)"/>
<path d="M421.001 80.8469C416.771 77.1461 403.952 69.8769 396.021 80.3181C400.383 90.2308 415.45 88.3805 421.001 80.8469Z" fill="url(#paint5_linear_1066_6760)"/>
<path style="mix-blend-mode:color-dodge" opacity="0.28" d="M421.001 80.8469C416.771 77.1461 403.952 69.8769 396.021 80.3181C400.383 90.2308 415.45 88.3805 421.001 80.8469Z" fill="url(#paint6_linear_1066_6760)"/>
<path d="M331.388 85.7378C335.22 91.1568 334.559 95.7826 335.088 100.673C327.158 100.409 321.475 98.9548 317.641 94.7253C313.809 90.6281 313.545 85.7378 312.223 79.7902C319.492 79.5259 327.819 80.5833 331.388 85.7378Z" fill="url(#paint7_linear_1066_6760)"/>
<path style="mix-blend-mode:color-dodge" opacity="0.28" d="M331.388 85.7378C335.22 91.1568 334.559 95.7826 335.088 100.673C327.158 100.409 321.475 98.9548 317.641 94.7253C313.809 90.6281 313.545 85.7378 312.223 79.7902C319.492 79.5259 327.819 80.5833 331.388 85.7378Z" fill="url(#paint8_linear_1066_6760)"/>
<path d="M370.776 87.3238C373.287 90.4958 373.42 95.9148 373.42 100.541C367.207 100.541 362.449 98.5581 359.542 95.1218C356.502 91.5531 355.18 86.5308 355.71 80.7153C362.318 80.7153 366.811 82.4336 370.776 87.3238Z" fill="url(#paint9_linear_1066_6760)"/>
<path style="mix-blend-mode:color-dodge" opacity="0.28" d="M370.776 87.3238C373.287 90.4958 373.42 95.9148 373.42 100.541C367.207 100.541 362.449 98.5581 359.542 95.1218C356.502 91.5531 355.18 86.5308 355.71 80.7153C362.318 80.7153 366.811 82.4336 370.776 87.3238Z" fill="url(#paint10_linear_1066_6760)"/>
<defs>
<linearGradient id="paint0_linear_1066_6760" x1="16.0023" y1="40.6228" x2="295.162" y2="40.6228" gradientUnits="userSpaceOnUse">
<stop stop-color="#E3EFE8"/>
<stop offset="1" stop-color="#BAF16C"/>
</linearGradient>
<linearGradient id="paint1_linear_1066_6760" x1="335.387" y1="58.7254" x2="355.822" y2="61.5568" gradientUnits="userSpaceOnUse">
<stop offset="0.025" stop-color="#9BC762"/>
<stop offset="0.999" stop-color="#E4E76E"/>
</linearGradient>
<linearGradient id="paint2_linear_1066_6760" x1="335.387" y1="58.7254" x2="355.822" y2="61.5568" gradientUnits="userSpaceOnUse">
<stop offset="0.025" stop-color="#9BC762"/>
<stop offset="0.999" stop-color="#E4E76E"/>
</linearGradient>
<linearGradient id="paint3_linear_1066_6760" x1="358.637" y1="51.8645" x2="381.061" y2="39.1477" gradientUnits="userSpaceOnUse">
<stop stop-color="#70BF66"/>
<stop offset="0.999" stop-color="#9DC762"/>
</linearGradient>
<linearGradient id="paint4_linear_1066_6760" x1="358.637" y1="51.8645" x2="381.061" y2="39.1477" gradientUnits="userSpaceOnUse">
<stop stop-color="#70BF66"/>
<stop offset="0.999" stop-color="#9DC762"/>
</linearGradient>
<linearGradient id="paint5_linear_1066_6760" x1="407.978" y1="94.1378" x2="421.112" y2="80.9321" gradientUnits="userSpaceOnUse">
<stop offset="0.025" stop-color="#9BC762"/>
<stop offset="0.999" stop-color="#E4E76E"/>
</linearGradient>
<linearGradient id="paint6_linear_1066_6760" x1="407.978" y1="94.1378" x2="421.112" y2="80.9321" gradientUnits="userSpaceOnUse">
<stop offset="0.025" stop-color="#9BC762"/>
<stop offset="0.999" stop-color="#E4E76E"/>
</linearGradient>
<linearGradient id="paint7_linear_1066_6760" x1="312.631" y1="78.3391" x2="339.457" y2="84.3251" gradientUnits="userSpaceOnUse">
<stop stop-color="#70BF66"/>
<stop offset="0.464" stop-color="#9BC762"/>
<stop offset="0.999" stop-color="#E4E76E"/>
</linearGradient>
<linearGradient id="paint8_linear_1066_6760" x1="312.631" y1="78.3391" x2="339.457" y2="84.3251" gradientUnits="userSpaceOnUse">
<stop stop-color="#70BF66"/>
<stop offset="0.464" stop-color="#9BC762"/>
<stop offset="0.999" stop-color="#E4E76E"/>
</linearGradient>
<linearGradient id="paint9_linear_1066_6760" x1="355.764" y1="80.4206" x2="376.639" y2="83.4292" gradientUnits="userSpaceOnUse">
<stop stop-color="#70BF66"/>
<stop offset="0.464" stop-color="#9BC762"/>
<stop offset="0.999" stop-color="#E4E76E"/>
</linearGradient>
<linearGradient id="paint10_linear_1066_6760" x1="355.764" y1="80.4206" x2="376.639" y2="83.4292" gradientUnits="userSpaceOnUse">
<stop stop-color="#70BF66"/>
<stop offset="0.464" stop-color="#9BC762"/>
<stop offset="0.999" stop-color="#E4E76E"/>
</linearGradient>
</defs>
</svg>
